<svg width="88" height="88" viewBox="0 0 88 88" fill="#053358" xmlns="http://www.w3.org/2000/svg">
<g filter="url(#filter0_d_95_290)">
<path d="M47.125 1.9939C46.5289 0.776251 45.322 0 44.0133 0C42.7046 0 41.4977 0.776251 40.9015 1.9939L30.1994 23.942L6.94843 27.8081C5.65429 28.0211 4.57826 28.98 4.17111 30.289C3.76397 31.598 4.09841 33.0287 5.01449 34.0028L21.6493 51.4304L17.985 75.7682C17.7814 77.1228 18.3194 78.4927 19.3809 79.2994C20.4424 80.1061 21.8383 80.2278 23.0162 79.6038L44.0133 68.4319L64.9958 79.6038C66.1591 80.2278 67.5696 80.1061 68.6311 79.2994C69.6926 78.4927 70.2306 77.1381 70.027 75.7682L66.3482 51.4304L82.983 34.0028C83.9136 33.0287 84.2335 31.598 83.8264 30.289C83.4192 28.98 82.3577 28.0211 81.049 27.8081L57.8126 23.942L47.125 1.9939Z" fill="#053358"/>
<path d="M44.0137 0.5C45.0523 0.500149 46.0295 1.07886 46.5732 2.02051L46.6758 2.21387L57.3633 24.1611L57.4756 24.3926L57.7305 24.4355L80.9668 28.3018H80.9688C82.0786 28.4825 82.9942 29.298 83.3486 30.4375C83.7037 31.5791 83.4219 32.819 82.6211 33.6572L65.9863 51.085L65.8174 51.2627L65.8535 51.5049L69.5322 75.8428C69.7097 77.0394 69.2381 78.2098 68.3281 78.9014C67.419 79.5921 66.2192 79.6924 65.2324 79.1631L65.2305 79.1621L44.248 67.9902L44.0137 67.8652L43.7783 67.9902L22.7812 79.1621C21.778 79.6933 20.5918 79.5915 19.6836 78.9014C18.7738 78.21 18.302 77.0244 18.4795 75.8428L22.1436 51.5049L22.1807 51.2627L22.0107 51.085L5.37598 33.6572C4.58631 32.8153 4.29491 31.5741 4.64844 30.4375C5.0023 29.2998 5.93161 28.4827 7.0293 28.3018H7.03027L30.2812 24.4355L30.5361 24.3926L30.6484 24.1611L41.3506 2.21387C41.8672 1.15869 42.9057 0.5 44.0137 0.5Z" stroke="black"/>
</g>
<defs>
<filter id="filter0_d_95_290" x="0" y="0" width="88" height="88" filterUnits="userSpaceOnUse" color-interpolation-filters="sRGB">
<feFlood flood-opacity="0" result="BackgroundImageFix"/>
<feColorMatrix in="SourceAlpha" type="matrix" values="0 0 0 0 0 0 0 0 0 0 0 0 0 0 0 0 0 0 127 0" result="hardAlpha"/>
<feOffset dy="4"/>
<feGaussianBlur stdDeviation="2"/>
<feComposite in2="hardAlpha" operator="out"/>
<feColorMatrix type="matrix" values="0 0 0 0 0 0 0 0 0 0 0 0 0 0 0 0 0 0 0.25 0"/>
<feBlend mode="normal" in2="BackgroundImageFix" result="effect1_dropShadow_95_290"/>
<feBlend mode="normal" in="SourceGraphic" in2="effect1_dropShadow_95_290" result="shape"/>
</filter>
</defs>
</svg>
