<svg width="56" height="62" viewBox="0 0 56 62" fill="none" xmlns="http://www.w3.org/2000/svg">
<path d="M30.6867 1.26474C29.3655 -0.105826 27.3245 -0.105826 26.014 1.26474L1.95196 26.2716C0.920731 27.3536 0.576988 29.0248 1.0926 30.4915C1.60822 31.9583 2.86503 32.9321 4.28297 32.9321H6.00169V54.0917C6.00169 58.3357 9.08463 61.7862 12.8765 61.7862H43.8134C47.6054 61.7862 50.6883 58.3357 50.6883 54.0917V32.9321H52.407C53.825 32.9321 55.0925 31.9583 55.6081 30.4915C56.1237 29.0248 55.78 27.3416 54.7488 26.2716L30.6867 1.26474ZM26.6263 38.7029H30.0637C32.9103 38.7029 35.2199 41.2877 35.2199 44.4737V56.0153H21.4701V44.4737C21.4701 41.2877 23.7797 38.7029 26.6263 38.7029Z" fill="white"/>
</svg>
