<svg width="37" height="39" viewBox="0 0 37 39" fill="none" xmlns="http://www.w3.org/2000/svg">
<path d="M30.125 16.0813C30.125 19.47 29.0658 22.6003 27.2813 25.14L36.2818 34.494C37.1704 35.4168 37.1704 36.9156 36.2818 37.8384C35.3931 38.7613 33.9499 38.7613 33.0612 37.8384L24.0608 28.4844C21.6151 30.3375 18.6008 31.4375 15.3375 31.4375C7.16888 31.4375 0.550049 24.5641 0.550049 16.0813C0.550049 7.5984 7.16888 0.725006 15.3375 0.725006C23.5062 0.725006 30.125 7.5984 30.125 16.0813ZM15.3375 26.7125C20.9895 26.7125 25.575 21.9506 25.575 16.0813C25.575 10.2119 20.9895 5.45001 15.3375 5.45001C9.6856 5.45001 5.10005 10.2119 5.10005 16.0813C5.10005 21.9506 9.6856 26.7125 15.3375 26.7125Z" fill="#07477B"/>
</svg>
