<svg width="111" height="91" viewBox="0 0 111 91" fill="#053358" xmlns="http://www.w3.org/2000/svg">
<g filter="url(#filter0_d_95_355)">
<g filter="url(#filter1_d_95_355)">
<path d="M51.7715 22.3092C54.2517 28.4091 51.7195 34.5658 46.1175 36.073C40.5154 37.5801 33.9595 33.8548 31.4793 27.755C28.9992 21.6551 31.5314 15.4984 37.1334 13.9912C42.7354 12.4841 49.2914 16.2094 51.7715 22.3092ZM28.5136 37.3384C31.7915 41.9453 30.9937 47.3058 26.7445 49.2964C22.4953 51.287 16.3903 49.1684 13.1296 44.5616C9.86902 39.9547 10.6495 34.5942 14.8987 32.6036C19.1479 30.613 25.2529 32.7316 28.5136 37.3384ZM23.1023 66.1456C32.1904 46.0545 48.3375 40.95 55.5004 40.95C62.6634 40.95 78.8104 46.0545 87.8986 66.1456C88.5229 67.5248 88.8004 69.0036 88.8004 70.4823V70.7098C88.8004 74.3783 85.1756 77.35 80.7009 77.35C78.7064 77.35 76.7292 77.1509 74.804 76.7528L59.5415 73.6247C56.8879 73.0844 54.1129 73.0844 51.4593 73.6247L36.1968 76.7528C34.2717 77.1509 32.2945 77.35 30.3 77.35C25.8253 77.35 22.2004 74.3783 22.2004 70.7098V70.4823C22.2004 69.0036 22.4779 67.5248 23.1023 66.1456ZM84.2564 49.2964C80.0071 47.3058 79.2093 41.9453 82.4873 37.3384C85.7653 32.7316 91.8529 30.613 96.1021 32.6036C100.351 34.5942 101.149 39.9547 97.8712 44.5616C94.5932 49.1684 88.5056 51.287 84.2564 49.2964ZM64.8834 36.073C59.2814 34.5658 56.7492 28.4091 59.2293 22.3092C61.7095 16.2094 68.2654 12.4841 73.8675 13.9912C79.4695 15.4984 82.0017 21.6551 79.5215 27.755C77.0414 33.8548 70.4854 37.5801 64.8834 36.073Z" fill="#053358"/>
<path d="M55.5 41.4495C62.4786 41.4495 78.441 46.4504 87.4434 66.3519C88.035 67.6587 88.3008 69.0664 88.3008 70.4827V70.7103C88.3005 74.014 84.9969 76.8498 80.7012 76.8499C78.7399 76.8499 76.7963 76.6541 74.9053 76.263H74.9043L59.6416 73.1351C57.0922 72.616 54.434 72.5832 51.8711 73.0374L51.3594 73.1351L36.0967 76.263H36.0957C34.2046 76.6541 32.2611 76.8499 30.2998 76.8499C26.004 76.8498 22.7005 74.014 22.7002 70.7103V70.4827C22.7002 69.0664 22.966 67.6587 23.5576 66.3519C32.5598 46.4508 48.5212 41.4497 55.5 41.4495ZM15.1104 33.056C17.0897 32.1287 19.5396 32.1442 21.9131 32.9691C24.2833 33.7928 26.5377 35.4122 28.1055 37.6273L28.1064 37.6282C29.6828 39.8437 30.2559 42.2076 29.957 44.2249C29.6595 46.2325 28.4973 47.9235 26.5322 48.8441C24.553 49.7712 22.1038 49.7558 19.7305 48.931C17.3603 48.1072 15.1059 46.4878 13.5381 44.2728C11.9697 42.0568 11.3953 39.692 11.6924 37.6741C11.988 35.6665 13.146 33.9763 15.1104 33.056ZM89.0947 32.9691C91.4657 32.1443 93.9104 32.1289 95.8896 33.056C97.8547 33.9765 99.0169 35.6676 99.3145 37.6751C99.6134 39.6924 99.0403 42.0563 97.4639 44.2718C95.887 46.4879 93.6317 48.1073 91.2637 48.931C88.8927 49.7557 86.448 49.7711 84.4688 48.8441C82.5037 47.9235 81.3415 46.2325 81.0439 44.2249C80.745 42.2076 81.3181 39.8437 82.8945 37.6282C84.4714 35.4121 86.7267 33.7928 89.0947 32.9691ZM37.2637 14.4739C42.5755 13.0451 48.9042 16.584 51.3086 22.4974C53.7033 28.387 51.2323 34.179 45.9873 35.5901C40.6754 37.0191 34.3467 33.4801 31.9424 27.5667C29.5477 21.6771 32.0187 15.8851 37.2637 14.4739ZM59.6924 22.4974C62.0968 16.584 68.4255 13.045 73.7373 14.4739C78.9823 15.8851 81.4533 21.6771 79.0586 27.5667C76.6542 33.4801 70.3255 37.019 65.0137 35.5901C59.7687 34.179 57.2977 28.387 59.6924 22.4974Z" stroke="black"/>
</g>
</g>
<defs>
<filter id="filter0_d_95_355" x="-4" y="0" width="119" height="99" filterUnits="userSpaceOnUse" color-interpolation-filters="sRGB">
<feFlood flood-opacity="0" result="BackgroundImageFix"/>
<feColorMatrix in="SourceAlpha" type="matrix" values="0 0 0 0 0 0 0 0 0 0 0 0 0 0 0 0 0 0 127 0" result="hardAlpha"/>
<feOffset dy="4"/>
<feGaussianBlur stdDeviation="2"/>
<feComposite in2="hardAlpha" operator="out"/>
<feColorMatrix type="matrix" values="0 0 0 0 0 0 0 0 0 0 0 0 0 0 0 0 0 0 0.25 0"/>
<feBlend mode="normal" in2="BackgroundImageFix" result="effect1_dropShadow_95_355"/>
<feBlend mode="normal" in="SourceGraphic" in2="effect1_dropShadow_95_355" result="shape"/>
</filter>
<filter id="filter1_d_95_355" x="7.11719" y="13.6566" width="96.7734" height="71.6934" filterUnits="userSpaceOnUse" color-interpolation-filters="sRGB">
<feFlood flood-opacity="0" result="BackgroundImageFix"/>
<feColorMatrix in="SourceAlpha" type="matrix" values="0 0 0 0 0 0 0 0 0 0 0 0 0 0 0 0 0 0 127 0" result="hardAlpha"/>
<feOffset dy="4"/>
<feGaussianBlur stdDeviation="2"/>
<feComposite in2="hardAlpha" operator="out"/>
<feColorMatrix type="matrix" values="0 0 0 0 0 0 0 0 0 0 0 0 0 0 0 0 0 0 0.25 0"/>
<feBlend mode="normal" in2="BackgroundImageFix" result="effect1_dropShadow_95_355"/>
<feBlend mode="normal" in="SourceGraphic" in2="effect1_dropShadow_95_355" result="shape"/>
</filter>
</defs>
</svg>
