<svg width="106" height="102" viewBox="0 0 106 102" fill="#053358" xmlns="http://www.w3.org/2000/svg">
<g clip-path="url(#clip0_95_293)">
<g filter="url(#filter0_d_95_293)">
<path d="M43.1172 8.29199C44.3428 7.79793 45.7341 7.94136 46.8438 8.64261L61.3856 17.9182L75.9275 8.64261C77.0372 7.94136 78.4285 7.81386 79.6541 8.29199C80.8797 8.77011 81.741 9.82199 82.006 11.0651L85.4675 27.5126L102.56 30.8435C103.852 31.0985 104.945 31.9592 105.442 33.1226C105.939 34.286 105.806 35.6407 105.078 36.7085L95.4381 50.7017L105.078 64.6948C105.806 65.7626 105.939 67.1014 105.442 68.2807C104.945 69.4601 103.852 70.3207 102.56 70.5598L85.451 73.8748L82.006 90.3382C81.741 91.5814 80.8466 92.6332 79.6375 93.1114C78.4285 93.5895 77.0206 93.462 75.911 92.7607L61.3691 83.4851L46.8272 92.7607C45.7175 93.462 44.3263 93.5895 43.1006 93.1114C41.875 92.6332 40.9806 91.5814 40.7322 90.3382L37.2872 73.8748L20.1781 70.5439C18.8863 70.2889 17.7931 69.4282 17.2963 68.2648C16.7994 67.1014 16.9319 65.7467 17.6606 64.6789L27.3 50.7017L17.6606 36.7085C16.9319 35.6407 16.7994 34.302 17.2963 33.1226C17.7931 31.9432 18.8863 31.0826 20.1781 30.8435L37.2872 27.5285L40.7488 11.0651C41.0138 9.82199 41.9081 8.77011 43.1172 8.29199ZM47.9866 50.7017C47.9866 43.6254 53.9491 37.8879 61.3028 37.8879C68.6566 37.8879 74.6191 43.6254 74.6191 50.7017C74.6191 57.7779 68.6566 63.5154 61.3028 63.5154C53.9491 63.5154 47.9866 57.7779 47.9866 50.7017ZM82.5691 50.7017C82.5691 39.402 73.0456 30.2379 61.3028 30.2379C49.56 30.2379 40.0366 39.402 40.0366 50.7017C40.0366 62.0014 49.56 71.1654 61.3028 71.1654C73.0456 71.1654 82.5691 62.0014 82.5691 50.7017Z" fill="#053358"/>
<path d="M43.3037 8.75586C44.3753 8.32388 45.5979 8.44672 46.5752 9.06348V9.06445L61.1172 18.3398L61.3857 18.5117L61.6543 18.3398L76.1963 9.06445L76.1953 9.06348C77.1689 8.44886 78.3936 8.33688 79.4727 8.75781C80.5372 9.1732 81.2857 10.0864 81.5166 11.1689L84.9785 27.6152L85.0469 27.9404L85.3721 28.0029L102.463 31.333V31.334C103.602 31.5588 104.554 32.3165 104.982 33.3193C105.384 34.2611 105.31 35.3523 104.777 36.25L104.664 36.4268L95.0264 50.418L94.8311 50.7021L95.0264 50.9854L104.664 64.9756V64.9766C105.297 65.9044 105.412 67.0644 104.981 68.0869C104.553 69.1049 103.602 69.8587 102.469 70.0684L102.465 70.0693L85.3555 73.3838L85.0293 73.4473L84.9619 73.7725L81.5166 90.2344C81.2871 91.3104 80.5101 92.2288 79.4541 92.6465C78.393 93.0661 77.1521 92.9536 76.1777 92.3379L61.6377 83.0635L61.3691 82.8916L61.1006 83.0635L46.5605 92.3379C45.5868 92.9532 44.3617 93.0666 43.2822 92.6455C42.2097 92.227 41.4365 91.31 41.2227 90.2402L41.2217 90.2354L37.7764 73.7725L37.709 73.4473L37.3828 73.3838L20.2734 70.0527H20.2725C19.1345 69.8273 18.1838 69.0705 17.7559 68.0684C17.3272 67.0645 17.4399 65.891 18.0723 64.9629L27.7119 50.9854L27.9072 50.7021L27.7119 50.418L18.0723 36.4248C17.4402 35.4973 17.3263 34.3382 17.7568 33.3164C18.1858 32.2984 19.1365 31.5446 20.2695 31.335L20.2734 31.334L37.3818 28.0195L37.708 27.9561L37.7764 27.6318L41.2383 11.168L41.2373 11.167C41.4673 10.0917 42.2453 9.1743 43.3008 8.75684L43.3037 8.75586ZM61.3027 29.7383C49.3021 29.7383 39.5361 39.1084 39.5361 50.7021C39.5364 62.2957 49.3023 71.665 61.3027 71.665C73.3032 71.665 83.0691 62.2957 83.0693 50.7021C83.0693 39.1084 73.3034 29.7383 61.3027 29.7383ZM61.3027 38.3877C68.3986 38.3877 74.1191 43.92 74.1191 50.7021C74.1189 57.4841 68.3985 63.0156 61.3027 63.0156C54.207 63.0156 48.4866 57.4841 48.4863 50.7021C48.4863 43.92 54.2069 38.3877 61.3027 38.3877Z" stroke="black"/>
</g>
</g>
<defs>
<filter id="filter0_d_95_293" x="13" y="8" width="96.7383" height="93.3965" filterUnits="userSpaceOnUse" color-interpolation-filters="sRGB">
<feFlood flood-opacity="0" result="BackgroundImageFix"/>
<feColorMatrix in="SourceAlpha" type="matrix" values="0 0 0 0 0 0 0 0 0 0 0 0 0 0 0 0 0 0 127 0" result="hardAlpha"/>
<feOffset dy="4"/>
<feGaussianBlur stdDeviation="2"/>
<feComposite in2="hardAlpha" operator="out"/>
<feColorMatrix type="matrix" values="0 0 0 0 0 0 0 0 0 0 0 0 0 0 0 0 0 0 0.25 0"/>
<feBlend mode="normal" in2="BackgroundImageFix" result="effect1_dropShadow_95_293"/>
<feBlend mode="normal" in="SourceGraphic" in2="effect1_dropShadow_95_293" result="shape"/>
</filter>
<clipPath id="clip0_95_293">
<rect width="106" height="102" fill="white"/>
</clipPath>
</defs>
</svg>
