<svg width="51" height="50" viewBox="0 0 51 50" fill="none" xmlns="http://www.w3.org/2000/svg">
<path d="M28.6019 5.59456L26.5742 0.997592C26.2391 0.199374 25.1909 0.170523 24.8214 0.997592L22.7937 5.59456L18.3 6.31584C17.501 6.45048 17.1573 7.55644 17.7502 8.22002L21.0151 11.7783L20.2419 16.7888C20.1216 17.6832 20.9464 18.3757 21.6853 17.9621L25.715 15.5771L29.7189 17.9237C30.4578 18.3372 31.2913 17.6448 31.1624 16.7504L30.3891 11.7399L33.6541 8.22002C34.2383 7.56606 33.9033 6.4601 33.1042 6.31584L28.6105 5.59456H28.6019ZM22.9484 25.0115C20.6715 25.0115 18.8242 27.0791 18.8242 29.6277V45.015C18.8242 47.5635 20.6715 49.6312 22.9484 49.6312H28.4473C30.7242 49.6312 32.5715 47.5635 32.5715 45.015V29.6277C32.5715 27.0791 30.7242 25.0115 28.4473 25.0115H22.9484ZM5.07683 31.1664C2.79993 31.1664 0.952637 33.2341 0.952637 35.7826V45.015C0.952637 47.5635 2.79993 49.6312 5.07683 49.6312H10.5758C12.8527 49.6312 14.7 47.5635 14.7 45.015V35.7826C14.7 33.2341 12.8527 31.1664 10.5758 31.1664H5.07683ZM36.6957 41.9375V45.015C36.6957 47.5635 38.543 49.6312 40.8199 49.6312H46.3188C48.5957 49.6312 50.443 47.5635 50.443 45.015V41.9375C50.443 39.389 48.5957 37.3213 46.3188 37.3213H40.8199C38.543 37.3213 36.6957 39.389 36.6957 41.9375Z" fill="white"/>
</svg>
